<?xml version="1.0" encoding="UTF-8"?>
<svg width="148.65963px" height="24px" viewBox="0 0 148.65963 24" version="1.1" xmlns="http://www.w3.org/2000/svg" xmlns:xlink="http://www.w3.org/1999/xlink">
    <title>core/logo</title>
    <g id="core/logo" stroke="none" stroke-width="1" fill="none" fill-rule="evenodd">
        <path d="M0,0 L3.75,0 L3.75,18.75 L0,18.75 L0,0 Z M82.125,18.75 L77.25,5.25 L81,5.25 L84,14.25 L87,5.25 L90.75,5.25 L85.875,18.75 L82.125,18.75 Z M73.5,1.5 L73.5,5.25 L75.375,5.25 L76.5,9 L73.5,9 L73.5,13.875 L73.5051499,13.983345 C73.5557697,14.5130847 73.9737496,14.9356277 74.501404,14.9932882 L74.625,15 L76.5,15 L76.5,18.75 L74.625,18.75 L74.4501494,18.7469227 C71.9112861,18.6574201 69.8664448,16.6264956 69.7548015,14.0933253 L69.75,13.875 L69.75,9 L68.25,9 L68.25,5.25 L69.75,5.25 L69.75,1.5 L73.5,1.5 Z M66.375,15 C67.4105339,15 68.25,15.8394661 68.25,16.875 C68.25,17.9105339 67.4105339,18.75 66.375,18.75 C65.3394661,18.75 64.5,17.9105339 64.5,16.875 C64.5,15.8394661 65.3394661,15 66.375,15 Z M54,5.25 L54.0002591,5.95151097 C54.9039139,5.50248131 55.9224719,5.25 57,5.25 C60.7279221,5.25 63.75,8.27207794 63.75,12 C63.75,15.7279221 60.7279221,18.75 57,18.75 C55.9224719,18.75 54.9039139,18.4975187 54.0002591,18.048489 L54,24 L50.25,24 L50.25,5.25 L54,5.25 Z M57,9 C55.3431458,9 54,10.3431458 54,12 C54,13.6568542 55.3431458,15 57,15 C58.6568542,15 60,13.6568542 60,12 C60,10.3431458 58.6568542,9 57,9 Z M27,5.25 C30.7279221,5.25 33.75,8.27207794 33.75,12 C33.75,15.7279221 30.7279221,18.75 27,18.75 L12,18.75 C8.27207794,18.75 5.25,15.7279221 5.25,12 C5.25,8.27207794 8.27207794,5.25 12,5.25 L27,5.25 Z M27,9 L12,9 C10.3431458,9 9,10.3431458 9,12 C9,13.6568542 10.3431458,15 12,15 L12,15 L27,15 C28.6568542,15 30,13.6568542 30,12 C30,10.3431458 28.6568542,9 27,9 L27,9 Z M42,5.25 C45.7279221,5.25 48.75,8.27207794 48.75,12 C48.75,15.7279221 45.7279221,18.75 42,18.75 C38.2720779,18.75 35.25,15.7279221 35.25,12 C35.25,8.27207794 38.2720779,5.25 42,5.25 Z M42,9 C40.3431458,9 39,10.3431458 39,12 C39,13.6568542 40.3431458,15 42,15 C43.6568542,15 45,13.6568542 45,12 C45,10.3431458 43.6568542,9 42,9 Z M94.2506107,5.89451996 L93.5965649,5.89451996 L93.5965649,7.75788462 L92.8912214,7.75788462 L92.8912214,5.89451996 L92.25,5.89451996 L92.25,5.25 L94.2506107,5.25 L94.2506107,5.89451996 Z M95.4668852,7.75788462 L94.77,7.75788462 L94.77,5.25 L95.6395082,5.25 L96.1381967,6.5964724 L96.6368852,5.25 L97.5,5.25 L97.5,7.75788462 L96.8095082,7.75788462 L96.8095082,6.43055637 L96.4578689,7.38776424 L95.824918,7.38776424 L95.4668852,6.43055637 L95.4668852,7.75788462 Z" id="Combined-Shape" fill-opacity="0.76" fill="#000020"></path>
        <path d="M115.661579,16.2723158 C114.293158,17.9214386 112.57386,18.746 110.503684,18.746 C109.310702,18.746 108.222982,18.4477544 107.240526,17.8512632 C106.25807,17.2547719 105.477368,16.4389825 104.898421,15.4038947 C104.319474,14.368807 104.03,13.2372281 104.03,12.0091579 C104.03,10.7810877 104.319474,9.64950877 104.898421,8.61442105 C105.477368,7.57933333 106.275614,6.75477193 107.293158,6.14073684 C108.275614,5.54424561 109.372105,5.246 110.582632,5.246 C112.53,5.246 114.135263,6.00915789 115.398421,7.53547368 L114.082632,8.82494737 C113.117719,7.66705263 111.951053,7.08810526 110.582632,7.08810526 C109.722982,7.08810526 108.951053,7.29863158 108.266842,7.71968421 C107.582632,8.14073684 107.038772,8.72845614 106.635263,9.48284211 C106.231754,10.2547719 106.03,11.0968772 106.03,12.0091579 C106.03,13.4828421 106.451053,14.6714386 107.293158,15.5749474 C108.135263,16.4784561 109.25807,16.9302105 110.661579,16.9302105 C112.117719,16.9302105 113.337018,16.2986316 114.319474,15.0354737 L115.661579,16.2723158 Z M119.897446,7.11442105 C120.283411,6.5705614 120.818499,6.12319298 121.50271,5.77231579 C122.18692,5.4214386 122.888674,5.246 123.607973,5.246 C125.362359,5.246 126.64306,5.95652632 127.450078,7.37757895 C128.432534,5.95652632 129.774639,5.246 131.476394,5.246 C134.792183,5.246 136.450078,7.14950877 136.450078,10.9565263 L136.450078,18.4565263 L134.50271,18.4565263 L134.50271,10.7986316 C134.50271,8.30740351 133.50271,7.06178947 131.50271,7.06178947 C130.432534,7.06178947 129.612359,7.43459649 129.042183,8.18021053 C128.472008,8.92582456 128.18692,9.98284211 128.18692,11.3512632 L128.18692,18.4565263 L126.239552,18.4565263 L126.239552,10.9302105 C126.239552,8.35126316 125.274639,7.06178947 123.344815,7.06178947 C122.239552,7.06178947 121.397446,7.43459649 120.818499,8.18021053 C120.239552,8.92582456 119.950078,9.98284211 119.950078,11.3512632 L119.950078,18.4565263 L118.00271,18.4565263 L118.00271,5.56178947 L119.897446,5.56178947 L119.897446,7.11442105 Z M142.764893,12.6670526 C140.326296,12.0881053 139.106998,10.8512632 139.106998,8.95652632 C139.106998,7.86880702 139.532437,6.97845614 140.383314,6.28547368 C141.234191,5.59249123 142.291209,5.246 143.554366,5.246 C145.273665,5.246 146.799981,5.93898246 148.133314,7.32494737 L146.817524,8.71968421 C145.764893,7.61442105 144.633314,7.06178947 143.422788,7.06178947 C142.721033,7.06178947 142.150858,7.22845614 141.712261,7.56178947 C141.273665,7.89512281 141.054366,8.3337193 141.054366,8.87757895 C141.054366,9.86003509 141.694717,10.491614 142.975419,10.7723158 L145.001735,11.246 C147.440331,11.8249474 148.65963,13.0354737 148.65963,14.8775789 C148.65963,16.0354737 148.221033,16.9696842 147.34384,17.6802105 C146.466647,18.3907368 145.299981,18.746 143.84384,18.746 C142.791209,18.746 141.795595,18.5267018 140.856998,18.0881053 C139.918402,17.6495088 139.177173,17.0617895 138.633314,16.3249474 L139.922788,14.9828421 C140.975419,16.2986316 142.273665,16.9565263 143.817524,16.9565263 C144.729805,16.9565263 145.440331,16.7810877 145.949103,16.4302105 C146.457875,16.0793333 146.712261,15.5968772 146.712261,14.9828421 C146.712261,14.0530175 146.036823,13.4302105 144.685945,13.1144211 L142.764893,12.6670526 Z" id="Combined-Shape" fill-opacity="0.48" fill="#000020" fill-rule="nonzero"></path>
    </g>
</svg>